<?xml version="1.0" encoding="utf-8"?>
<!-- Generator: Adobe Illustrator 16.0.0, SVG Export Plug-In . SVG Version: 6.00 Build 0)  -->
<!DOCTYPE svg PUBLIC "-//W3C//DTD SVG 1.1 Tiny//EN" "http://www.w3.org/Graphics/SVG/1.1/DTD/svg11-tiny.dtd">
<svg version="1.1" baseProfile="tiny" id="Warstwa_1"
	 xmlns="http://www.w3.org/2000/svg" xmlns:xlink="http://www.w3.org/1999/xlink" x="0px" y="0px" width="138.493px"
	 height="138.495px" viewBox="0 0 138.493 138.495" xml:space="preserve">
<circle fill="#222222" cx="69.246" cy="69.248" r="69.246"/>
<path fill="#FFFFFF" d="M107.243,96.143c0,6.627-5.373,12-12,12h-54c-6.627,0-12-5.373-12-12v-54c0-6.627,5.373-12,12-12h54
	c6.627,0,12,5.373,12,12V96.143z"/>
<rect x="43.243" y="26.143" fill="#222222" width="7" height="14"/>
<rect x="86.243" y="26.143" fill="#222222" width="7" height="14"/>
<rect x="57.243" y="26.143" fill="#222222" width="7" height="14"/>
<rect x="72.243" y="26.143" fill="#222222" width="7" height="14"/>
<rect x="50.243" y="26.143" fill="#FFFFFF" width="7" height="16"/>
<rect x="79.243" y="26.143" fill="#FFFFFF" width="7" height="16"/>
<rect x="29.243" y="52.143" fill="#222222" width="78" height="9"/>
<path fill="#222222" d="M59.243,94.263c0,3.247-2.632,5.88-5.88,5.88h-9.24c-3.248,0-5.88-2.633-5.88-5.88v-9.24
	c0-3.247,2.632-5.88,5.88-5.88h9.24c3.248,0,5.88,2.633,5.88,5.88V94.263z"/>
</svg>
