<?xml version="1.0" encoding="utf-8"?>
<!-- Generator: Adobe Illustrator 16.0.0, SVG Export Plug-In . SVG Version: 6.00 Build 0)  -->
<!DOCTYPE svg PUBLIC "-//W3C//DTD SVG 1.1 Tiny//EN" "http://www.w3.org/Graphics/SVG/1.1/DTD/svg11-tiny.dtd">
<svg version="1.1" baseProfile="tiny" id="Warstwa_1"
	 xmlns="http://www.w3.org/2000/svg" xmlns:xlink="http://www.w3.org/1999/xlink" x="0px" y="0px" width="72.1px" height="72.099px"
	 viewBox="0 0 72.1 72.099" xml:space="preserve">
<circle fill="#222222" cx="36.05" cy="36.049" r="36.05"/>
<path fill="#FFFFFF" stroke="#222222" stroke-width="1.9903" stroke-miterlimit="10" d="M27.729,31.036
	c0,5.301-4.004,9.603-8.944,9.603c-4.936,0-8.939-4.302-8.939-9.603c0-5.304,4.004-9.601,8.939-9.601
	C23.725,21.435,27.729,25.731,27.729,31.036z"/>
<ellipse fill="#FFFFFF" stroke="#222222" stroke-width="2.4878" stroke-miterlimit="10" cx="18.757" cy="20.604" rx="5.199" ry="5.28"/>
<path fill="#FFFFFF" stroke="#222222" stroke-width="1.9903" stroke-miterlimit="10" d="M61.845,31.036
	c0,5.301-4.004,9.603-8.944,9.603c-4.933,0-8.937-4.302-8.937-9.603c0-5.304,4.004-9.601,8.937-9.601
	C57.841,21.435,61.845,25.731,61.845,31.036z"/>
<path fill="#FFFFFF" stroke="#222222" stroke-width="2.4878" stroke-miterlimit="10" d="M58.072,20.604
	c0,2.917-2.328,5.28-5.195,5.28c-2.874,0-5.203-2.364-5.203-5.28c0-2.917,2.329-5.281,5.203-5.281
	C55.744,15.323,58.072,17.687,58.072,20.604z"/>
<ellipse fill="#FFFFFF" stroke="#222222" stroke-width="4" stroke-miterlimit="10" cx="35.845" cy="41.12" rx="17.97" ry="19.296"/>
<ellipse fill="#FFFFFF" stroke="#222222" stroke-width="5" stroke-miterlimit="10" cx="35.789" cy="20.155" rx="10.448" ry="10.61"/>
<circle fill-rule="evenodd" fill="#222222" cx="44.567" cy="51.233" r="15.267"/>
<path fill-rule="evenodd" fill="#FFFFFF" d="M52.257,61.176c-0.094-0.03-0.282-0.069-0.448-0.15
	c-0.742-0.36-1.479-0.731-2.214-1.104c-0.11-0.057-0.194-0.057-0.309-0.005c-0.346,0.155-0.696,0.299-1.052,0.434
	c-0.117,0.044-0.175,0.109-0.212,0.226c-0.255,0.777-0.514,1.553-0.775,2.327c-0.189,0.565-0.6,0.855-1.199,0.857
	c-0.433,0.002-0.865,0.002-1.297,0c-0.598-0.003-1.003-0.296-1.194-0.863c-0.261-0.774-0.521-1.551-0.774-2.328
	c-0.04-0.119-0.103-0.177-0.218-0.221c-0.349-0.133-0.694-0.271-1.033-0.427c-0.129-0.06-0.225-0.05-0.345,0.011
	c-0.718,0.364-1.438,0.726-2.158,1.083c-0.552,0.273-1.033,0.192-1.469-0.241c-0.306-0.306-0.613-0.61-0.916-0.917
	c-0.428-0.433-0.502-0.921-0.227-1.472c0.359-0.721,0.72-1.44,1.084-2.157c0.059-0.116,0.063-0.207,0.008-0.329
	c-0.157-0.346-0.287-0.702-0.443-1.048c-0.037-0.081-0.123-0.168-0.207-0.197c-0.778-0.269-1.562-0.525-2.343-0.787
	c-0.547-0.185-0.841-0.589-0.846-1.167c-0.004-0.445-0.003-0.891-0.001-1.336c0.005-0.589,0.295-0.993,0.854-1.182
	c0.769-0.259,1.538-0.515,2.309-0.767c0.13-0.043,0.201-0.107,0.251-0.238c0.13-0.35,0.275-0.693,0.429-1.033
	c0.051-0.113,0.053-0.199-0.004-0.309c-0.365-0.719-0.723-1.44-1.084-2.159c-0.286-0.571-0.213-1.047,0.238-1.502
	c0.305-0.308,0.611-0.612,0.918-0.917c0.408-0.407,0.905-0.491,1.42-0.236c0.738,0.366,1.476,0.735,2.212,1.107
	c0.109,0.056,0.194,0.056,0.309,0.005c0.339-0.154,0.685-0.295,1.033-0.428c0.119-0.046,0.189-0.104,0.231-0.23
	c0.253-0.778,0.514-1.554,0.774-2.329c0.188-0.557,0.592-0.85,1.181-0.856c0.444-0.004,0.891-0.004,1.336,0
	c0.584,0.006,0.989,0.308,1.175,0.863c0.258,0.776,0.521,1.55,0.774,2.328c0.038,0.12,0.102,0.177,0.217,0.22
	c0.354,0.136,0.706,0.28,1.053,0.434c0.105,0.048,0.185,0.052,0.29-0.001c0.729-0.371,1.46-0.736,2.193-1.1
	c0.551-0.273,1.033-0.192,1.468,0.243c0.316,0.314,0.633,0.626,0.945,0.945c0.388,0.395,0.469,0.883,0.221,1.389
	c-0.36,0.734-0.728,1.465-1.1,2.193c-0.065,0.129-0.068,0.229-0.006,0.364c0.153,0.332,0.292,0.672,0.42,1.015
	c0.046,0.126,0.114,0.187,0.236,0.226c0.778,0.255,1.553,0.514,2.328,0.775c0.546,0.183,0.841,0.59,0.847,1.165
	c0.004,0.452,0.005,0.904,0,1.356c-0.007,0.567-0.302,0.976-0.834,1.156c-0.763,0.256-1.526,0.512-2.291,0.759
	c-0.155,0.05-0.246,0.123-0.303,0.287c-0.117,0.34-0.265,0.67-0.414,0.997c-0.052,0.113-0.053,0.198,0.003,0.31
	c0.361,0.712,0.716,1.427,1.074,2.141c0.299,0.597,0.228,1.061-0.241,1.534c-0.305,0.307-0.612,0.61-0.917,0.917
	C52.976,61.047,52.688,61.167,52.257,61.176z M45.401,47.13c-2.707,0.001-4.896,2.193-4.896,4.901
	c0.001,2.693,2.188,4.881,4.89,4.889c2.709,0.008,4.92-2.207,4.904-4.912C50.285,49.307,48.098,47.128,45.401,47.13z"/>
</svg>
