<?xml version="1.0" encoding="utf-8"?>
<!-- Generator: Adobe Illustrator 16.0.0, SVG Export Plug-In . SVG Version: 6.00 Build 0)  -->
<!DOCTYPE svg PUBLIC "-//W3C//DTD SVG 1.1 Tiny//EN" "http://www.w3.org/Graphics/SVG/1.1/DTD/svg11-tiny.dtd">
<svg version="1.1" baseProfile="tiny" id="Warstwa_1"
	 xmlns="http://www.w3.org/2000/svg" xmlns:xlink="http://www.w3.org/1999/xlink" x="0px" y="0px" width="72.1px" height="72.099px"
	 viewBox="0 0 72.1 72.099" xml:space="preserve">
<circle fill="#222222" cx="36.05" cy="36.049" r="36.05"/>
<path fill="#FFFFFF" d="M56,50.793c0,2.691-2.182,4.873-4.873,4.873H20.873c-2.691,0-4.873-2.182-4.873-4.873V20.54
	c0-2.691,2.182-4.873,4.873-4.873h30.254c2.691,0,4.873,2.182,4.873,4.873V50.793z"/>
<path fill="#222222" d="M50,46.582c0,1.704-1.381,3.085-3.085,3.085h-21.83c-1.704,0-3.085-1.381-3.085-3.085v-21.83
	c0-1.704,1.381-3.085,3.085-3.085h21.83c1.704,0,3.085,1.381,3.085,3.085V46.582z"/>
<circle fill="#FFFFFF" cx="35.733" cy="36.456" r="9.923"/>
<rect x="16" y="15.667" fill="#FFFFFF" width="40" height="18"/>
<circle fill="#222222" cx="35.814" cy="36.577" r="5.484"/>
<path fill="#222222" d="M50,26.884c0,1.537-1.246,2.782-2.782,2.782h-2.436c-1.536,0-2.782-1.246-2.782-2.782v-2.436
	c0-1.537,1.246-2.782,2.782-2.782h2.436c1.536,0,2.782,1.246,2.782,2.782V26.884z"/>
<rect x="42" y="21.667" fill="#222222" width="8" height="5"/>
</svg>
