<?xml version="1.0" encoding="utf-8"?>
<!-- Generator: Adobe Illustrator 16.0.0, SVG Export Plug-In . SVG Version: 6.00 Build 0)  -->
<!DOCTYPE svg PUBLIC "-//W3C//DTD SVG 1.1 Tiny//EN" "http://www.w3.org/Graphics/SVG/1.1/DTD/svg11-tiny.dtd">
<svg version="1.1" baseProfile="tiny" id="Warstwa_1"
	 xmlns="http://www.w3.org/2000/svg" xmlns:xlink="http://www.w3.org/1999/xlink" x="0px" y="0px" width="72.1px" height="72.099px"
	 viewBox="0 0 72.1 72.099" xml:space="preserve">
<circle fill="#222222" cx="36.05" cy="36.049" r="36.05"/>
<path fill="#FFFFFF" d="M53.75,22.667c0,1.657-0.976,3-2.18,3H21.055c-1.204,0-2.18-1.343-2.18-3l0,0c0-1.657,0.976-3,2.18-3H51.57
	C52.774,19.667,53.75,21.01,53.75,22.667L53.75,22.667z"/>
<path fill="#FFFFFF" d="M53.75,35.667c0,1.656-0.976,3-2.18,3H21.055c-1.204,0-2.18-1.344-2.18-3l0,0c0-1.656,0.976-3,2.18-3H51.57
	C52.774,32.667,53.75,34.01,53.75,35.667L53.75,35.667z"/>
<path fill="#FFFFFF" d="M53.75,48.667c0,1.656-0.976,3-2.18,3H21.055c-1.204,0-2.18-1.344-2.18-3l0,0c0-1.656,0.976-3,2.18-3H51.57
	C52.774,45.667,53.75,47.01,53.75,48.667L53.75,48.667z"/>
<rect x="52" y="14.667" fill="#222222" width="8" height="39"/>
</svg>
