<?xml version="1.0" encoding="utf-8"?>
<!-- Generator: Adobe Illustrator 16.0.0, SVG Export Plug-In . SVG Version: 6.00 Build 0)  -->
<!DOCTYPE svg PUBLIC "-//W3C//DTD SVG 1.1 Tiny//EN" "http://www.w3.org/Graphics/SVG/1.1/DTD/svg11-tiny.dtd">
<svg version="1.1" baseProfile="tiny" id="Warstwa_1"
	 xmlns="http://www.w3.org/2000/svg" xmlns:xlink="http://www.w3.org/1999/xlink" x="0px" y="0px" width="39.252px"
	 height="39.252px" viewBox="0 0 39.252 39.252" xml:space="preserve">
<circle fill="#222222" cx="19.626" cy="19.627" r="19.626"/>
<circle fill="none" stroke="#FFFFFF" stroke-width="1.9579" stroke-miterlimit="10" cx="19.653" cy="19.541" r="13.083"/>
<rect x="4.757" y="12.145" fill="#222222" width="30" height="14"/>
<g>
	<path fill="#FFFFFF" d="M4.711,21.85l-1.515-6.315h2.115l0.915,4.755h0.03l1.635-4.575h0.795c0.229,0,0.415,0.05,0.555,0.15
		s0.25,0.255,0.33,0.465l1.395,3.96h0.03l0.9-4.755h2.115l-1.485,6.315c-0.18,0.779-0.61,1.17-1.29,1.17h-0.93l-1.665-4.741
		L6.917,23.02H6.001C5.331,23.02,4.901,22.629,4.711,21.85z"/>
	<path fill="#FFFFFF" d="M15.946,21.85l-1.515-6.315h2.115l0.915,4.755h0.03l1.635-4.575h0.795c0.229,0,0.415,0.05,0.555,0.15
		s0.25,0.255,0.33,0.465l1.395,3.96h0.03l0.9-4.755h2.115l-1.485,6.315c-0.18,0.779-0.61,1.17-1.29,1.17h-0.93l-1.665-4.741
		l-1.725,4.741h-0.915C16.566,23.02,16.136,22.629,15.946,21.85z"/>
	<path fill="#FFFFFF" d="M27.181,21.85l-1.515-6.315h2.115l0.915,4.755h0.03l1.635-4.575h0.795c0.229,0,0.415,0.05,0.555,0.15
		s0.25,0.255,0.33,0.465l1.395,3.96h0.03l0.9-4.755h2.115l-1.485,6.315c-0.18,0.779-0.61,1.17-1.29,1.17h-0.93l-1.665-4.741
		l-1.725,4.741h-0.915C27.801,23.02,27.371,22.629,27.181,21.85z"/>
</g>
</svg>
