<?xml version="1.0" encoding="utf-8"?>
<!-- Generator: Adobe Illustrator 16.0.0, SVG Export Plug-In . SVG Version: 6.00 Build 0)  -->
<!DOCTYPE svg PUBLIC "-//W3C//DTD SVG 1.1 Tiny//EN" "http://www.w3.org/Graphics/SVG/1.1/DTD/svg11-tiny.dtd">
<svg version="1.1" baseProfile="tiny" id="Warstwa_1"
	 xmlns="http://www.w3.org/2000/svg" xmlns:xlink="http://www.w3.org/1999/xlink" x="0px" y="0px" width="72.1px" height="72.099px"
	 viewBox="0 0 72.1 72.099" xml:space="preserve">
<circle fill="#222222" cx="36.05" cy="36.049" r="36.05"/>
<path fill="#FFFFFF" d="M57,35.667c0,2.2-1.8,4-4,4H20c-2.2,0-4-1.8-4-4l0,0c0-2.2,1.8-4,4-4h33C55.2,31.667,57,33.466,57,35.667
	L57,35.667z"/>
<path fill="#FFFFFF" d="M52,19.667c0,2.2-1.8,4-4,4H25c-2.2,0-4-1.8-4-4l0,0c0-2.2,1.8-4,4-4h23C50.2,15.667,52,17.466,52,19.667
	L52,19.667z"/>
<path fill="#FFFFFF" d="M48,51.667c0,2.2-1.8,4-4,4H29c-2.2,0-4-1.8-4-4l0,0c0-2.2,1.8-4,4-4h15C46.2,47.667,48,49.466,48,51.667
	L48,51.667z"/>
</svg>
