<?xml version="1.0" encoding="utf-8"?>
<!-- Generator: Adobe Illustrator 16.0.0, SVG Export Plug-In . SVG Version: 6.00 Build 0)  -->
<!DOCTYPE svg PUBLIC "-//W3C//DTD SVG 1.1 Tiny//EN" "http://www.w3.org/Graphics/SVG/1.1/DTD/svg11-tiny.dtd">
<svg version="1.1" baseProfile="tiny" id="Warstwa_1"
	 xmlns="http://www.w3.org/2000/svg" xmlns:xlink="http://www.w3.org/1999/xlink" x="0px" y="0px" width="54.054px"
	 height="54.054px" viewBox="0 0 54.054 54.054" xml:space="preserve">
<circle fill="#222222" cx="27.027" cy="27.027" r="27.027"/>
<path fill-rule="evenodd" fill="#FFFFFF" d="M11.067,39.115c3.545,0.16,6.776-0.562,9.723-2.69c-4.804-2.53-7.818-6.367-8.709-11.68
	c-0.53-3.16-0.22-6.286,1.17-9.374c3.979,4.339,8.595,7.159,14.531,7.364c0-0.624-0.005-1.139,0-1.654
	c0.036-3.03,1.473-5.224,4.195-6.421c2.719-1.197,5.315-0.731,7.597,1.202c0.35,0.297,0.664,0.404,1.088,0.249
	c1.255-0.46,2.513-0.912,3.818-1.386c-0.416,1.399-1.37,2.468-2.423,3.475c0.039,0.057,0.079,0.115,0.117,0.173
	c1.051-0.296,2.102-0.593,3.311-0.933c-0.404,0.522-0.703,0.981-1.075,1.369c-0.636,0.666-1.342,1.264-1.97,1.937
	c-0.231,0.247-0.44,0.62-0.456,0.945c-0.104,2.08-0.295,4.136-0.923,6.14c-0.874,2.789-2.25,5.292-4.121,7.528
	c-3.385,4.05-7.774,6.242-12.97,6.756c-4.358,0.431-8.518-0.351-12.339-2.601C11.434,39.398,11.255,39.249,11.067,39.115z"/>
</svg>
